<svg width="54" height="86" viewBox="0 0 54 86" fill="none" xmlns="http://www.w3.org/2000/svg">
<path d="M44.907 82.4829C44.523 84.2108 42.9871 85.5547 41.0672 85.5547H23.212C15.7244 85.5547 10.5407 84.5948 7.27682 82.8669C4.20497 81.1389 2.66904 77.6831 2.66904 72.4994C2.66904 70.1955 3.05302 67.5076 3.62899 64.2438L9.58072 33.5253H4.01298C1.5171 33.5253 -0.210813 31.4134 0.173168 28.9175L1.90109 19.702C2.09308 19.126 2.28506 18.55 2.66904 18.166L14.5725 2.23081C15.3404 1.27086 16.4924 0.694885 17.6443 0.694885H32.0436C34.5395 0.694885 36.2674 2.80678 35.8834 5.30266L33.1956 18.742H49.5148C52.0107 18.742 53.7386 20.8539 53.3546 23.3498L52.0107 30.2614C51.6267 31.9894 50.0907 33.3333 48.1708 33.3333H30.3157L23.98 65.9717C23.98 66.3557 23.98 66.7396 23.98 67.1236C23.98 68.2756 24.94 68.8515 27.0519 68.8515H42.6031C45.099 68.8515 46.8269 70.9634 46.4429 73.4593L44.907 82.4829Z" fill="#2A0042"/>
</svg>
