<svg width="89" height="68" viewBox="0 0 89 68" fill="none" xmlns="http://www.w3.org/2000/svg">
<path d="M78.1498 64.4829C77.7658 66.2108 76.2299 67.5547 74.31 67.5547H22.2805C13.449 67.5547 7.30526 66.2108 4.04142 63.5229C0.77758 60.835 0.00962901 55.6513 1.35356 47.7797L6.72928 19.941C8.2652 11.8774 10.9531 6.50171 14.4089 4.00583C17.8647 1.50995 24.0085 0.166016 32.456 0.166016H66.4384C75.27 0.166016 81.4137 1.50995 84.6775 4.00583C87.9413 6.6937 88.9013 11.8774 87.3654 19.5571L83.9095 38.1802C83.5256 39.9081 81.9896 41.252 80.0697 41.252H23.2405L21.7046 49.3156C21.5126 50.4675 21.5126 51.0435 21.8966 51.4275C22.2805 51.8115 23.2405 52.0035 24.3924 52.0035H75.8459C78.3418 52.0035 80.0697 54.1154 79.6857 56.6112L78.1498 64.4829ZM66.2464 28.3886L68.1663 17.6372C68.3583 16.4852 68.3583 15.7173 67.9743 15.5253C67.5903 15.1413 66.8224 15.1413 65.4784 15.1413H31.4961C30.3441 15.1413 29.3842 15.3333 28.8082 15.5253C28.2322 15.9092 27.8483 16.4852 27.6563 17.6372L25.7364 28.3886H66.2464Z" fill="#2A0042"/>
</svg>
