<svg width="176" height="176" viewBox="0 0 176 176" fill="none" xmlns="http://www.w3.org/2000/svg">
<path d="M151.377 111.058C150.417 112.018 149.265 112.978 148.305 113.938C145.809 116.241 142.93 116.241 140.818 113.938C138.706 111.826 138.706 108.754 140.818 106.45C143.506 103.762 146.193 101.074 148.881 98.1944C156.753 90.3227 164.817 82.4511 172.496 74.3875C177.104 69.5878 177.104 61.5242 172.688 56.7244C167.888 51.5406 160.209 50.9647 154.641 55.3805C150.417 58.8363 147.153 63.2521 143.122 66.8999C138.898 70.3557 135.25 74.5795 131.41 78.4193C123.923 85.907 116.435 93.3946 108.947 100.882C102.612 107.218 96.0839 113.746 89.7482 120.081C87.8283 122.001 84.3725 122.001 82.4526 120.273C80.1487 118.161 80.1487 115.09 82.0686 112.786C82.4526 112.402 82.8366 111.826 83.4125 111.442C96.2759 98.7703 108.947 85.907 121.811 73.0436C122.963 71.8916 123.923 70.5477 124.691 69.2038C127.57 63.2521 125.842 56.3404 121.043 52.6926C115.091 48.4688 108.563 49.0448 103.38 54.2285C101.076 56.3404 98.9638 58.6443 96.6599 60.7562C96.0839 61.3322 95.124 61.9081 94.356 62.1001C91.8601 62.6761 89.7482 61.5242 88.5963 59.2203C87.4444 56.9164 88.0203 54.6125 90.1322 52.6926C100.116 42.7091 109.907 32.9176 119.891 22.934C125.075 17.7503 125.075 9.4947 119.891 4.31096C115.091 -0.6808 106.451 -0.6808 101.46 4.31096C95.508 10.2627 89.5562 16.0224 83.6045 21.9741C72.8531 32.7256 62.2936 43.285 51.5421 54.0365C48.8542 56.7244 45.3984 56.9164 43.2865 54.6125C41.1746 52.3086 41.3666 49.2368 44.0545 46.5489C48.6622 41.9411 53.27 37.5253 57.8778 32.7256C63.0615 27.3498 62.6776 19.0942 57.3018 13.9105C52.1181 9.11072 44.0545 9.30271 38.8707 14.4865C28.3112 25.0459 17.7518 35.6054 7.19228 46.1649C1.04858 51.5406 0.856593 59.2203 6.23233 64.98C11.0321 70.1637 19.4797 70.1637 24.8554 65.172C26.0074 64.02 27.1593 62.8681 28.3112 61.7161C31.1911 59.2203 35.2229 60.3722 36.5668 63.828C37.7188 66.7079 36.1829 68.8198 34.263 70.7397C24.4714 80.5312 14.2959 90.5147 4.31242 100.69C-1.06331 106.066 -1.44729 114.13 3.35247 119.313C8.72821 125.073 16.7918 125.457 22.3595 120.081C27.5433 115.09 32.535 110.098 37.5268 105.106C49.6222 93.0106 61.7176 80.9152 73.813 68.6278C76.1169 66.3239 79.5727 66.1319 81.6846 68.2438C83.7965 70.3557 83.7965 73.8116 81.3007 76.1154C70.9332 86.4829 60.5657 96.8504 50.0062 107.218C41.3666 115.857 32.727 124.497 24.0875 133.137C18.9037 138.32 18.7117 145.808 23.5115 151.376C27.7353 156.368 35.6069 157.327 41.1746 153.104C43.4785 151.376 45.5904 149.072 47.7023 146.96C54.038 140.624 60.3737 134.289 66.7094 127.953C69.7812 124.881 74.389 125.649 75.7329 129.681C76.6929 132.177 75.7329 133.905 74.005 135.633C68.0533 141.584 62.1016 147.536 56.1499 153.68C50.9661 158.863 51.3501 166.927 56.7259 172.303C61.5256 177.103 69.5892 177.294 74.773 172.495C77.0769 170.383 79.3807 168.079 81.4926 165.967C96.0839 151.376 110.675 136.592 125.458 122.001C127.57 119.889 130.834 119.889 132.946 121.617C135.058 123.537 135.25 126.609 133.33 128.913C132.37 130.065 131.218 131.025 130.258 132.177C126.226 136.4 125.075 141.584 127.186 146.768C129.298 151.76 133.906 154.832 139.282 154.832C142.354 154.832 145.426 154.064 147.729 151.952C155.409 144.464 162.897 136.976 170.192 129.297C175.184 123.921 174.8 116.049 169.616 111.058C164.625 105.874 156.561 106.066 151.377 111.058Z" fill="#2A0042"/>
</svg>
