<svg width="85" height="68" viewBox="0 0 85 68" fill="none" xmlns="http://www.w3.org/2000/svg">
<path d="M75.08 64.4828C74.696 66.2108 73.1601 67.5547 71.2402 67.5547H22.0906C14.603 67.5547 9.2272 66.5947 5.96336 64.8668C2.69952 63.1389 0.971619 59.6831 0.971619 54.4993C0.971619 52.5794 1.1636 50.2755 1.73957 47.5877L6.92331 20.901C8.45924 12.8374 11.1471 7.65363 14.7949 4.96576C18.4428 2.27789 24.5865 0.93396 33.034 0.93396H81.0317C83.5276 0.93396 85.2555 3.04586 84.8715 5.54173L83.3356 13.2214C82.9516 14.9493 81.4157 16.2932 79.4958 16.2932H32.842C31.6901 16.2932 30.7302 16.4852 30.1542 16.8692C29.5782 17.2532 29.1942 18.0211 29.0022 18.9811L23.0505 48.5476C22.8585 48.9316 22.8585 49.3156 22.8585 49.5076C22.8585 50.6595 23.8185 51.2355 25.7384 51.2355H72.7761C75.272 51.2355 76.9999 53.3474 76.6159 55.8433L75.08 64.4828Z" fill="#2A0042"/>
</svg>
