<svg width="93" height="94" viewBox="0 0 93 94" fill="none" xmlns="http://www.w3.org/2000/svg">
<path d="M79.6984 93.5547H65.8751C63.3792 93.5547 61.6513 91.4428 62.0352 88.947L70.6748 44.7891C70.6748 44.2132 70.8668 43.8292 70.8668 43.6372C70.8668 42.8692 70.6749 42.4852 70.2909 42.2932C69.9069 42.1013 69.1389 42.1013 68.179 42.1013H31.8928L22.4852 90.2909C22.1012 92.0188 20.5653 93.3627 18.6454 93.3627H4.82206C2.32619 93.3627 0.598269 91.2508 0.98225 88.755L17.4935 3.70314C17.8774 1.97522 19.4134 0.631287 21.3333 0.631287H35.1566C37.6524 0.631287 39.3804 2.74318 38.9964 5.23906L34.7726 26.742H72.2108C79.5064 26.742 84.8821 27.702 88.146 29.4299C91.4098 31.1578 92.9458 34.6136 92.9458 39.6054C92.9458 41.7173 92.7538 44.0212 92.1778 46.709L83.7302 90.2909C83.1543 92.2108 81.6183 93.5547 79.6984 93.5547Z" fill="#2A0042"/>
</svg>
