<svg width="55" height="43" viewBox="0 0 55 43" fill="none" xmlns="http://www.w3.org/2000/svg">
<path d="M48.1642 40.5042C47.9722 41.8481 46.6283 42.808 45.2844 42.808H13.414C7.84628 42.808 4.19842 42.0401 2.08652 40.3122C0.166621 38.5843 -0.409326 35.3204 0.550625 30.5206L4.00643 13.2415C4.96638 8.24973 6.5023 4.9859 8.80619 3.25798C10.9181 1.72206 14.7579 0.954102 19.9417 0.954102H41.0606C46.6283 0.954102 50.2761 1.72206 52.388 3.44997C54.4999 5.17789 55.0759 8.24973 54.1159 13.2415L52.004 24.377C51.812 25.7209 50.4681 26.6808 49.1242 26.6808H13.9899L13.03 31.6726C12.838 32.2486 12.838 32.8245 13.222 33.0165C13.414 33.2085 13.9899 33.4005 14.7579 33.4005H46.0524C47.7803 33.4005 49.3162 35.1284 48.9322 36.8563L48.1642 40.5042ZM40.6766 18.4252L41.8285 11.7056C42.0205 10.9376 42.0205 10.5536 41.6365 10.3616C41.4446 10.1696 40.8686 9.97766 40.1006 9.97766H18.9817C18.2137 9.97766 17.6378 10.1696 17.2538 10.3616C16.8698 10.5536 16.6778 10.9376 16.4858 11.7056L15.3339 18.4252H40.6766Z" fill="#2A0042"/>
</svg>
