<svg width="63" height="58" viewBox="0 0 63 58" fill="none" xmlns="http://www.w3.org/2000/svg">
<path d="M42.0038 41.8079H16.6611L13.9732 55.6313C13.7812 56.9752 12.4373 57.9352 11.0933 57.9352H3.6057C1.87778 57.9352 0.341854 56.2072 0.725835 54.4793L10.9013 2.64183C11.0933 1.2979 12.4373 0.337952 13.7812 0.337952H49.6834C54.2912 0.337952 57.5551 0.913927 59.475 2.06587C61.3949 3.21781 62.3548 5.3297 62.3548 8.40155C62.3548 9.74549 62.1628 11.0894 61.7789 12.8173L58.515 29.3285C57.5551 34.3203 55.8271 37.5841 53.5233 39.3121C51.2194 40.848 47.3796 41.8079 42.0038 41.8079ZM45.2677 29.9045L48.9155 11.6654C48.9155 11.4734 48.9155 11.0894 48.9155 11.0894C48.9155 10.7054 48.7235 10.3215 48.5315 10.3215C48.3395 10.1295 47.7635 10.1295 47.1876 10.1295H22.9967L18.773 31.8244H42.9638C43.7317 31.8244 44.3077 31.6324 44.4997 31.4404C44.8837 31.0565 45.0757 30.4805 45.2677 29.9045Z" fill="#2A0042"/>
</svg>
