<svg width="27" height="58" viewBox="0 0 27 58" fill="none" xmlns="http://www.w3.org/2000/svg">
<path d="M25.3028 55.5041C25.1109 56.848 23.7669 57.8079 22.423 57.8079H12.8235C8.21571 57.8079 4.75987 57.232 3.03195 56.272C1.11205 55.3121 0.1521 53.3922 0.1521 50.3203C0.1521 48.7844 0.344067 47.2485 0.728047 45.3286L8.98367 2.51464C9.17566 1.17071 10.5196 0.210754 11.8635 0.210754H19.3511C21.079 0.210754 22.615 1.93868 22.231 3.66659L13.9754 45.9045C13.9754 46.0965 13.7834 46.2885 13.7834 46.4805C13.7834 47.2485 14.3594 47.6324 15.7033 47.6324H23.1909C24.9189 47.6324 26.4548 49.3604 26.0708 51.0883L25.3028 55.5041Z" fill="#2A0042"/>
</svg>
