<svg width="55" height="43" viewBox="0 0 55 43" fill="none" xmlns="http://www.w3.org/2000/svg">
<path d="M48.4877 40.5042C48.2957 41.8481 46.9517 42.808 45.6078 42.808H13.7374C8.16963 42.808 4.52179 42.0401 2.40989 40.3122C0.489985 38.5843 -0.0859632 35.3204 0.87399 30.5206L4.3298 13.2415C5.28975 8.24973 6.82568 4.9859 9.12957 3.25798C11.2415 1.72206 15.0813 0.954102 20.265 0.954102H41.384C46.9517 0.954102 50.5996 1.72206 52.7115 3.44997C54.8234 5.17789 55.3993 8.24973 54.4394 13.2415L52.3275 24.377C52.1355 25.7209 50.7915 26.6808 49.4476 26.6808H14.3133L13.3534 31.6726C13.1614 32.2486 13.1614 32.8245 13.5454 33.0165C13.7374 33.2085 14.3133 33.4005 15.0813 33.4005H46.3758C48.1037 33.4005 49.6396 35.1284 49.2556 36.8563L48.4877 40.5042ZM41 18.4252L42.152 11.7056C42.344 10.9376 42.344 10.5536 41.96 10.3616C41.768 10.1696 41.192 9.97766 40.4241 9.97766H19.3051C18.5371 9.97766 17.9612 10.1696 17.5772 10.3616C17.1932 10.5536 17.0012 10.9376 16.8092 11.7056L15.6573 18.4252H41Z" fill="#2A0042"/>
</svg>
