<svg width="63" height="58" viewBox="0 0 63 58" fill="none" xmlns="http://www.w3.org/2000/svg">
<path d="M41.898 41.8079H16.5552L13.8673 55.6313C13.6753 56.9752 12.3314 57.9352 10.9875 57.9352H3.4998C1.77188 57.9352 0.235958 56.2072 0.619939 54.4793L10.7955 2.64183C10.9874 1.2979 12.3314 0.337952 13.6753 0.337952H49.5776C54.1854 0.337952 57.4492 0.913927 59.3691 2.06587C61.289 3.21781 62.249 5.3297 62.249 8.40155C62.249 9.74549 62.057 11.0894 61.673 12.8173L58.4092 29.3285C57.4492 34.3203 55.7213 37.5841 53.4174 39.3121C51.1135 40.848 47.2737 41.8079 41.898 41.8079ZM45.1618 29.9045L48.8096 11.6654C48.8096 11.4734 48.8096 11.0894 48.8096 11.0894C48.8096 10.7054 48.6176 10.3215 48.4257 10.3215C48.2337 10.1295 47.6577 10.1295 47.0817 10.1295H22.8909L18.6671 31.8244H42.8579C43.6259 31.8244 44.2019 31.6324 44.3938 31.4404C44.7778 31.0565 45.1618 30.4805 45.1618 29.9045Z" fill="#2A0042"/>
</svg>
