<svg width="59" height="44" viewBox="0 0 59 44" fill="none" xmlns="http://www.w3.org/2000/svg">
<path d="M38.7409 43.192H13.3982C8.02243 43.192 4.18261 42.4241 2.2627 40.6961C0.342791 38.9682 -0.233187 35.7044 0.726766 30.9046L4.1826 13.4335C5.14256 8.44173 6.67848 5.17789 8.98237 3.44997C11.0943 1.91405 14.7421 0.954102 20.1178 0.954102H45.4606C50.8363 0.954102 54.6762 1.72206 56.5961 3.44997C58.516 5.17789 59.092 8.44172 58.132 13.2415L54.6762 30.7126C53.7162 35.7044 52.1803 38.9682 49.8764 40.6961C47.5725 42.4241 43.9247 43.192 38.7409 43.192ZM41.0448 31.2886L44.6927 12.0895C44.8846 11.3216 44.6926 10.9376 44.5006 10.7456C44.3087 10.5536 43.7327 10.3616 42.9647 10.3616H19.9258C19.1579 10.3616 18.5819 10.5536 18.1979 10.7456C17.814 10.9376 17.622 11.3216 17.622 12.0895L13.9741 31.2886C13.7822 31.8646 13.7821 32.4406 14.1661 32.6325C14.3581 32.8245 14.9341 33.0165 15.702 33.0165H38.7409C39.5089 33.0165 40.0849 32.8245 40.2769 32.6325C40.6608 32.4406 40.8528 31.8646 41.0448 31.2886Z" fill="#2A0042"/>
</svg>
